<svg xmlns="http://www.w3.org/2000/svg" xmlns:xlink="http://www.w3.org/1999/xlink" id="Capa_1" x="0px" y="0px" viewBox="0 0 851 851" style="enable-background:new 0 0 851 851;" xml:space="preserve">
<style type="text/css">
	.st0{fill:#FEFEFE;}
	.st1{fill:none;stroke:#384047;stroke-width:14;stroke-miterlimit:10;}
	.st2{fill:none;stroke:#384047;stroke-width:16;stroke-miterlimit:10;}
</style>
<path class="st0" d="M850.4,1656c-0.1-0.4-0.2-0.8-0.3-1.1c0.3,0.1,0.7,0.3,1,0.4C850.8,1655.6,850.6,1655.8,850.4,1656z"></path>
<circle class="st1" cx="425.4" cy="425.5" r="395.8"></circle>
<path class="st2" d="M-257.4,659.2h-266.5c-26,0-47.1-21.1-47.1-47.1V431.3c0-26,21.1-47.1,47.1-47.1h266.5  c26,0,47.1,21.1,47.1,47.1v180.8C-210.3,638.1-231.4,659.2-257.4,659.2z"></path>
<path class="st2" d="M-502.8,384.2V276c0-62,50.2-112.2,112.2-112.2h0c62,0,112.2,50.2,112.2,112.2v111.2"></path>
<path class="st2" d="M479.3,380.6c64.6,0,122.1-10.2,159.2-26.2c1.7-0.7,1.4-3.2-0.3-3.5l-158.9-34.7V380.6z"></path>
<path class="st2" d="M582.2,304.7c24.2-11.3,38.5-25.3,38.5-40.4c0-38-90.9-68.8-202.9-68.8s-202.9,30.8-202.9,68.8  s90.9,68.8,202.9,68.8v-68.8L582.2,304.7z"></path>
<path class="st2" d="M214.8,264.4c-53.1,173.8,0,274.9,0,274.9c0,38,90.9,68.8,202.9,68.8V320.9"></path>
<path class="st2" d="M620.7,264.4c17.5,30.8,26.6,62.7,30.3,93.4"></path>
<path class="st2" d="M649.7,348.4c25,135.3-5.9,278.6-5.9,278.6c-36.9,17.3-96.8,28.5-164.4,28.5V338.9"></path>
<line class="st2" x1="582.2" y1="304.7" x2="582.2" y2="339.7"></line>
<line class="st2" x1="417.8" y1="521.5" x2="479.3" y2="566"></line>
</svg>