<svg xmlns="http://www.w3.org/2000/svg" xmlns:xlink="http://www.w3.org/1999/xlink" id="Capa_1" x="0px" y="0px" viewBox="0 0 851 851" style="enable-background:new 0 0 851 851;" xml:space="preserve">
<style type="text/css">
	.st0{fill:#FEFEFE;}
	.st1{fill:none;stroke:#384047;stroke-width:14;stroke-miterlimit:10;}
	.st2{fill:none;stroke:#384047;stroke-width:16;stroke-miterlimit:10;}
</style>
<path class="st0" d="M850.4,1656c-0.1-0.4-0.2-0.8-0.3-1.1c0.3,0.1,0.7,0.3,1,0.4C850.8,1655.6,850.6,1655.8,850.4,1656z"></path>
<circle class="st1" cx="425.4" cy="425.5" r="395.8"></circle>
<path class="st2" d="M425.4,664.6h-59.5c0,0-51.1-14.4-24.5-96.4c0,0-2.9-19.8-30.3-106.4s20.8-148,24.2-161s5.3-44.1,52.4-57.8  c43.1-12.5,74.5,0,74.5,0c48.5,7.2,49.1,44.8,52.4,57.8c3.3,13,51.5,74.4,24.2,161c-27.3,86.6-30.3,106.4-30.3,106.4  c26.6,82-24.5,96.4-24.5,96.4h-59.5"></path>
<path class="st2" d="M341.3,568.2l27.9-69.7c30.6-102.9-59.7-137.9-59.7-137.9"></path>
<path class="st2" d="M302.9,400c-60.9,18.4-92.2-24.9-99.3-36.6c-1-1.7-0.9-3.8,0.4-5.3c50.3-60.5,98.9-31.5,98.9-31.5l16.2,7.5"></path>
<path class="st2" d="M346.6,266.2c-107.7-29.8-165.4-72.6-165.4-72.6c9.1,93.4,61.6,133,61.6,133"></path>
<path class="st2" d="M508.5,568.2l-27.9-69.7c-30.6-102.9,59.7-137.9,59.7-137.9"></path>
<path class="st2" d="M546.9,400c60.9,18.4,92.2-24.9,99.3-36.6c1-1.7,0.9-3.8-0.4-5.3c-50.3-60.5-98.9-31.5-98.9-31.5l-16.2,7.5"></path>
<path class="st2" d="M503.2,266.2c107.7-29.8,165.4-72.6,165.4-72.6c-9.1,93.4-61.6,133-61.6,133"></path>
<circle class="st1" cx="395.4" cy="606.4" r="2.7"></circle>
<circle class="st1" cx="456.8" cy="606.4" r="2.7"></circle>
</svg>