<svg xmlns="http://www.w3.org/2000/svg" xmlns:xlink="http://www.w3.org/1999/xlink" id="Capa_1" x="0px" y="0px" viewBox="0 0 851 851" style="enable-background:new 0 0 851 851;" xml:space="preserve">
<style type="text/css">
	.st0{fill:none;stroke:#424242;stroke-width:15;stroke-miterlimit:10;}
	.st1{fill:#424242;stroke:#FFFFFF;stroke-width:14;stroke-miterlimit:10;}
</style>
<circle class="st0" cx="425.5" cy="425.5" r="395.2"></circle>
<g>
	<g>
		<path class="st1" d="M677.1,663.2L511,497.1c14.3-3.2,29.8-10.1,46.2-20.4c11.8-7.5,18.9-20.3,18.8-34.2c0-4.7-0.8-9.2-2.3-13.5    c16.2-2.4,33.9-9.7,52.8-21.7c11.8-7.5,18.9-20.3,18.9-34.2s-7-26.8-18.9-34.2c-8.7-5.5-17.1-10-25.2-13.4    c5.2-3.3,10.1-7.1,14.4-11.3c13.6-13.6,23.7-34.4,29.8-61.8c3.1-13.6-1-27.6-10.9-37.5c-9.9-9.9-23.9-13.9-37.5-10.9    c-27.4,6.2-48.2,16.2-61.8,29.8c-4.3,4.3-8,9.1-11.3,14.4c-3.5-8.1-8-16.5-13.4-25.1c-7.5-11.8-20.3-18.8-34.2-18.8    c-14,0-26.8,7-34.2,18.9c-12,18.9-19.2,36.6-21.7,52.8c-4.3-1.5-8.8-2.3-13.5-2.3c-14,0-26.8,7-34.2,18.8    c-10.4,16.4-17.2,31.9-20.4,46.2L195.2,181.3c-5.9-5.9-15.4-5.9-21.3,0s-5.9,15.4,0,21.3l145,145c-6.3,3.2-11.7,8.1-15.6,14.3    c-15,23.7-22.6,45.5-22.6,64.8c0,32.9,23,67.2,36.4,84.4L204.4,623.9c-5.9,5.9-5.9,15.4,0,21.3c2.9,2.9,6.8,4.4,10.6,4.4    s7.7-1.5,10.6-4.4l112.7-112.7c17.2,13.4,51.5,36.5,84.4,36.5c19.3,0,41.1-7.6,64.8-22.6c6.2-3.9,11.1-9.3,14.3-15.6l153.8,153.8    c2.9,2.9,6.8,4.4,10.7,4.4s7.7-1.5,10.6-4.4C683,678.6,683,669.1,677.1,663.2z M556.7,255.1c9.4-9.4,25.7-16.9,47.1-21.7    c0.8-0.2,1.6-0.3,2.4-0.3c3.7,0,6.2,2,7.2,3.1c1.2,1.2,3.9,4.6,2.8,9.6c-4.8,21.4-12.3,37.7-21.7,47.1    c-14.5,14.5-42.4,21.6-62.4,24.6C535.1,297.5,542.2,269.6,556.7,255.1z M561.8,346.4c13.3,0,30.1,6.2,48.7,17.9    c4.4,2.8,4.8,7,4.8,8.8s-0.5,6-4.8,8.8c-18.6,11.7-35.4,17.9-48.7,17.9c-20.5,0-45.3-14.7-61.5-26.7    C516.5,361.2,541.3,346.4,561.8,346.4z M467.7,239.1c2.8-4.4,7-4.8,8.8-4.8s6,0.5,8.8,4.8c11.7,18.6,17.9,35.4,17.9,48.7    c0,20.5-14.7,45.3-26.7,61.5c-12-16.2-26.7-41-26.7-61.5C449.7,274.5,455.9,257.7,467.7,239.1z M398.3,308.5    c2.8-4.4,7-4.8,8.8-4.8s6,0.5,8.8,4.8c11.7,18.6,17.9,35.4,17.9,48.7c0,14.8-7.7,31.9-16.5,46.3l-35.8-35.8    c-0.7-3.6-1.1-7.1-1.1-10.5C380.4,343.9,386.6,327,398.3,308.5z M337.5,488.2c-12-16.2-26.7-41-26.7-61.5    c0-13.3,6.2-30.1,17.9-48.7c2.8-4.4,7-4.8,8.8-4.8c1.7,0,6,0.5,8.8,4.8c11.7,18.6,17.9,35.4,17.9,48.7    C364.2,447.2,349.5,472,337.5,488.2z M471.5,520.8c-18.6,11.7-35.4,17.9-48.7,17.9c-20.5,0-45.3-14.7-61.5-26.7    c16.2-12,41-26.7,61.5-26.7c13.3,0,30.1,6.2,48.7,17.9c4.4,2.8,4.8,7,4.8,8.8C476.4,513.8,475.9,518.1,471.5,520.8z M492.4,469.2    c-3.4,0-6.9-0.4-10.5-1.1l-35.8-35.8c14.4-8.8,31.5-16.5,46.3-16.5c13.3,0,30.1,6.2,48.7,17.9c4.4,2.8,4.8,7,4.8,8.8    c0,1.7-0.5,6-4.8,8.8C522.6,463,505.7,469.2,492.4,469.2z"></path>
	</g>
</g>
</svg>